<?xml version="1.0"?>
<svg width="48" height="48" xmlns="http://www.w3.org/2000/svg" xmlns:svg="http://www.w3.org/2000/svg">
 <defs>
  <clipPath id="clip0_61385:212">
   <rect fill="white" height="19.2" id="svg_1" transform="translate(12 14.5712)" width="24.6857"/>
  </clipPath>
 </defs>
 <g class="layer">
  <title>Layer 1</title>
  <rect fill="#323238" height="48" id="svg_2" width="48"/>
  <g clip-path="url(#clip0_61385:212)" id="svg_3">
   <path d="m31,12l-14,0c-2.761,0 -5,2.239 -5,5l0,14c0,2.761 2.239,5 5,5l14,0c2.762,0 5,-2.239 5,-5l0,-14c0,-2.761 -2.238,-5 -5,-5zm-11,19l-3,0l0,-11l3,0l0,11zm-1.5,-12.268c-0.966,0 -1.75,-0.79 -1.75,-1.764s0.784,-1.764 1.75,-1.764s1.75,0.79 1.75,1.764s-0.783,1.764 -1.75,1.764zm13.5,12.268l-3,0l0,-5.604c0,-3.368 -4,-3.113 -4,0l0,5.604l-3,0l0,-11l3,0l0,1.765c1.396,-2.586 7,-2.777 7,2.476l0,6.759z" fill="white" id="svg_4"/>
  </g>
 </g>
</svg>